# xmcd
#
# Track frame offsets: 
#        150
#        13067
#        28862
#        39750
#        56425
#        68600
#        82000
#        99225
#        115854
#        132332
#        144247
#        162667
#        176777
#        191557
#        209040
#        225767
#
# Disc length: 3271 seconds
#
# Revision: 2
# Processed by: cddbd v1.4PL0 Copyright (c) Steve Scherf et al.
# Submitted via: ExactAudioCopy v0.95a3
#
DISCID=d40cc510
DTITLE=Shelby Lynne - Epic Recordings
DYEAR=1900
DGENRE=Country
TTITLE0=Don't Get Around Much Anymore
TTITLE1=Till You Were Gone
TTITLE2=Lonely Weekends
TTITLE3=I'm Confessin'
TTITLE4=Don't Mind If I Do 
TTITLE5=Your Love Stays With Me
TTITLE6=A Lighter Shade of Blue
TTITLE7=Dog Day Afternoon
TTITLE8=Soft Talk
TTITLE9=I Walk The Line
TTITLE10=I'll Lie Myself To Sleep
TTITLE11=Thinking About You Again
TTITLE12=You Can't Break A Broken Heart
TTITLE13=I've Learned To Live
TTITLE14=Stop Me
TTITLE15=It Might Be Me
EXTD=
EXTT0=
EXTT1=
EXTT2=
EXTT3=
EXTT4=
EXTT5=
EXTT6=
EXTT7=
EXTT8=
EXTT9=
EXTT10=
EXTT11=
EXTT12=
EXTT13=
EXTT14=
EXTT15=
PLAYORDER=
